<?xml version="1.0" encoding="UTF-8"?>
<svg xmlns="http://www.w3.org/2000/svg" xmlns:xlink="http://www.w3.org/1999/xlink" width="px" height="px" viewBox="0 0 100 100" version="1.1">
<g id="surface1">
<path style=" stroke:none;fill-rule:nonzero;fill:rgb(37.647059%,37.647059%,37.647059%);fill-opacity:1;" d="M 50 0 C 69 0 85 10.5 93.5 25.5 C 93.5 25.5 60.5 26 49.5 26 C 38.5 26 28 34.5 26 45.5 L 11 18.5 C 20.5 7 34.5 0 50 0 "/>
<path style=" stroke:none;fill-rule:nonzero;fill:rgb(37.647059%,37.647059%,37.647059%);fill-opacity:1;" d="M 66 50 C 66 59 59 66 50 66 C 41 66 34 59 34 50 C 34 41 41 34 50 34 C 59 34 66 41 66 50 "/>
<path style=" stroke:none;fill-rule:nonzero;fill:rgb(37.647059%,37.647059%,37.647059%);fill-opacity:1;" d="M 0 50 C 0 40 3 31 8 23.5 C 8 23.5 23.5 49 27.5 58 C 31.5 67 39.5 74 50 74 C 53 74 55.5 73.5 58 72.5 L 42.5 99.5 C 18.5 96 0 75 0 50 "/>
<path style=" stroke:none;fill-rule:nonzero;fill:rgb(37.647059%,37.647059%,37.647059%);fill-opacity:1;" d="M 50 100 L 48.5 100 C 48.5 100 62 74 68 66 C 71.5 61.5 74 56 74 50 C 74 42.5 70 35.5 64.5 31 L 96.5 31 C 98.5 37 100 43.5 100 50 C 100 77.5 77.5 100 50 100 "/>
</g>
</svg>
