<?xml version="1.0" encoding="UTF-8"?>
<svg xmlns="http://www.w3.org/2000/svg" xmlns:xlink="http://www.w3.org/1999/xlink" width="px" height="px" viewBox="0 0 82 100" version="1.1">
<g id="surface1">
<path style=" stroke:none;fill-rule:nonzero;fill:rgb(37.647059%,37.647059%,37.647059%);fill-opacity:1;" d="M 41.105469 23.5 C 40.105469 11 50.105469 1 61.605469 0 C 63.054688 14.5 49.105469 24.949219 41.105469 23.5 M 68.554688 95.898438 C 63.054688 101.398438 57.554688 100.398438 52.054688 97.898438 C 46.054688 95.398438 40.554688 95.398438 34.554688 97.898438 C 26.554688 101.398438 22.554688 100.398438 18.054688 95.898438 C -8.894531 67.949219 -4.945312 25.449219 25.054688 24 C 32.554688 24.5 37.554688 28 41.554688 28.5 C 48.054688 27 54.054688 23.5 61.054688 24 C 69.054688 24.5 75.554688 28 79.554688 34 C 62.554688 44.5 66.554688 66.949219 82.054688 73.449219 C 79.054688 81.398438 75.054688 89.898438 68.554688 95.898438 Z M 68.554688 95.898438 "/>
</g>
</svg>
