<?xml version="1.0" encoding="utf-8"?>
<!-- Generator: Adobe Illustrator 26.1.0, SVG Export Plug-In . SVG Version: 6.00 Build 0)  -->
<svg version="1.1" id="Layer_1" xmlns="http://www.w3.org/2000/svg" xmlns:xlink="http://www.w3.org/1999/xlink" x="0px" y="0px"
	 viewBox="0 0 1000 150" enable-background="new 0 0 1000 150" xml:space="preserve">
<path id="fullLogo_79_" fill="#222F39" d="M341.4,33.8l-27.6,82.7h-27.6l-16.1-48.2l-16.1,48.2h-27.6L199,33.8h27.6L243,83.1
	l16.4-49.3H281l16.4,49.3l16.4-49.3H341.4z"/>
<path id="fullLogo_78_" fill="#222F39" d="M434.1,95.9v20.7h-85V33.8h85v20.7h-59.7v10.3h55.1v20.7h-55.1v10.3H434.1z"/>
<path id="fullLogo_77_" fill="#222F39" d="M540.8,92.7c0,13.1-10.7,23.8-23.8,23.8l-70.3,0V33.8l65.8,0c13.1,0,23.8,10.7,23.8,23.8
	c0,5.9-2.1,11.3-5.7,15.4C536.7,77.4,540.8,84.6,540.8,92.7z M471.9,54.5V66h33.3c3.2,0,5.7-2.6,5.7-5.7s-2.6-5.7-5.7-5.7H471.9z
	 M515.6,90.1c0-3.2-2.6-5.7-5.7-5.7h-37.9v11.5h37.9C513,95.9,515.6,93.3,515.6,90.1z"/>
<path id="fullLogo_76_" fill="#222F39" d="M607.3,95.9h-30.4v20.7h-25.3V33.8h63.2c17.1,0,31,13.9,31,31c0,10.4-5.2,19.6-13.1,25.3
	l13.9,26.4h-28.5L607.3,95.9z M576.9,75.2h33.3c5.7,0,10.3-4.6,10.3-10.3s-4.6-10.3-10.3-10.3h-33.3V75.2z"/>
<path id="fullLogo_75_" fill="#222F39" d="M707.2,118.8c-32.2,0-52.9-9.2-52.9-43.6c0-32.2,18.4-43.6,52.9-43.6
	c34.4,0,52.8,11.5,52.8,43.6C759.9,109.6,741.6,118.8,707.2,118.8z M707.2,52.2c-16.1,0-25.3,4.6-25.3,23c0,18.4,9.2,23,25.3,23
	c16,0,25.2-4.6,25.2-23C732.4,56.8,723.5,52.2,707.2,52.2z"/>
<path id="fullLogo_74_" fill="#222F39" d="M821,118.8c-32.2,0-52.9-9.2-52.9-43.6c0-32.2,18.4-43.6,52.9-43.6
	c34.4,0,52.8,11.5,52.8,43.6C873.8,109.6,855.4,118.8,821,118.8z M821,52.2c-16.1,0-25.3,4.6-25.3,23c0,18.4,9.2,23,25.3,23
	c16,0,25.2-4.6,25.2-23C846.2,56.8,837.3,52.2,821,52.2z"/>
<path id="fullLogo_73_" fill="#222F39" d="M971.1,54.5h-33.3v62h-25.3v-62h-33.3V33.8h91.9V54.5z"/>
<path id="fullLogo_72_" fill="#222F39" d="M995.8,51.1c-1.9,1.9-4.3,2.8-7,2.8c-2.8,0-5.2-1-7.1-2.9c-1.9-1.9-2.9-4.3-2.9-7.1
	c0-2.9,1-5.4,3.1-7.3c2-1.8,4.3-2.7,6.9-2.7c2.8,0,5.1,1,7.1,2.9s2.9,4.3,2.9,7.1C998.8,46.7,997.8,49.1,995.8,51.1z M982.9,38.1
	c-1.6,1.6-2.4,3.6-2.4,5.8c0,2.3,0.8,4.3,2.4,5.9c1.6,1.6,3.6,2.4,5.8,2.4c2.3,0,4.2-0.8,5.8-2.4c1.6-1.6,2.4-3.6,2.4-5.9
	c0-2.2-0.8-4.2-2.4-5.8c-1.6-1.7-3.6-2.5-5.8-2.5C986.5,35.6,984.6,36.4,982.9,38.1z M984.4,49.4V38.3c0.7,0,1.7,0,3.1,0
	c1.4,0,2.1,0,2.3,0c0.9,0.1,1.6,0.3,2.2,0.6c1,0.5,1.5,1.4,1.5,2.7c0,0.9-0.3,1.6-0.8,2c-0.5,0.4-1.2,0.7-1.9,0.7
	c0.7,0.1,1.2,0.4,1.6,0.6c0.7,0.5,1,1.4,1,2.5v1c0,0.1,0,0.2,0,0.3s0,0.2,0.1,0.3l0.1,0.3h-2.8c-0.1-0.4-0.2-0.9-0.2-1.5
	c0-0.7-0.1-1.1-0.2-1.4c-0.1-0.4-0.4-0.7-0.8-0.8c-0.2-0.1-0.5-0.1-1-0.2l-0.6,0h-0.6v3.9H984.4z M989.7,40.5
	c-0.4-0.2-1-0.2-1.7-0.2h-0.7v3.2h1.1c0.7,0,1.2-0.1,1.6-0.4s0.6-0.7,0.6-1.3S990.3,40.8,989.7,40.5z"/>
<path id="fullLogo_71_" fill="#7DCC26" d="M19.9,37.8l59.6,60.6c0,0,5.3,5.3,5.3,13.8c0,5.2-3.8,21-21,21c-8.4,0-14.1-5.2-14.1-5.2
	L9.1,87.1c0,0-8.3-7.1-8.3-17c0-12.6,0-15.7,0-26.2s10.5-10.5,10.5-10.5C16.4,33.5,19.9,37.8,19.9,37.8z M160.1,37.8l-59.6,60.6
	c0,0-5.3,5.3-5.3,13.8c0,5.2,3.8,21,21,21c8.4,0,14.1-5.2,14.1-5.2l40.6-40.7c0,0,8.3-7.1,8.3-17c0-12.6,0-15.7,0-26.2
	s-10.5-10.5-10.5-10.5C163.6,33.5,160.1,37.8,160.1,37.8z M90,17.7c-14.5,0-26.2,11.7-26.2,26.2c0,6.6,2.4,12.6,6.4,17.2l15.9,17.8
	c1,1.1,2.4,1.8,3.9,1.8s3-0.7,3.9-1.8l15.5-17.3c4.2-4.7,6.8-10.8,6.8-17.6C116.2,29.5,104.5,17.7,90,17.7z"/>
</svg>
